<svg fill="none" height="30" viewBox="0 0 30 30" width="30" xmlns="http://www.w3.org/2000/svg"><circle fill="#f1f1f1" r="15" transform="matrix(-1 0 0 1 15 15)"/><path d="m10.0831 14.4147 6.6752-6.67507c.1544-.15451.3605-.23963.5803-.23963.2197 0 .4258.08512.5802.23963l.4916.49146c.3199.32024.3199.84073 0 1.16048l-5.6053 5.60533 5.6115 5.6115c.1544.1545.2396.3605.2396.5801 0 .2199-.0852.4259-.2396.5805l-.4916.4914c-.1545.1545-.3604.2396-.5802.2396s-.4259-.0851-.5802-.2396l-6.6815-6.6812c-.15471-.155-.2397-.3619-.23922-.5819-.00048-.2209.08451-.4277.23922-.5826z" fill="#000"/></svg>