<svg fill="none" height="20" viewBox="0 0 18 20" width="18" xmlns="http://www.w3.org/2000/svg"><path d="m17 16.5851c0-.7481-1.1636-11.63632-1.1636-11.63632-.0199-.12945-.0865-.24713-.1873-.33076-.1008-.08364-.2287-.12742-.3596-.12305h-2.3273c-.0775-.98155-.5336-1.89452-1.2719-2.54596-.7383-.65143-1.70092-.990291-2.68448-.94495-.98478-.04549-1.94878.293-2.68894.94417s-1.19871 1.56418-1.27906 2.54674h-2.32727c-.1309-.00437-.25885.03941-.35964.12305-.10079.08363-.16742.20131-.18727.33076 0 0-1.163657 10.89592-1.16364 11.63632.00002.7405.45581 1.3659 1.01847 1.8155.56267.4497 1.26269.5933 1.99535.5933h10.03058c.6982 0 1.43-.1441 1.9908-.594.5608-.45.9648-1.0666.9648-1.8148zm-8.01745-14.61523c.71021-.03228 1.40505.2133 1.93725.68468s.8599 1.1315.9137 1.84042h-5.7135c.05374-.71103.38308-1.37294.91781-1.84463.53473-.4717 1.23257-.71587 1.94474-.68047zm5.01525 16.06983-10.03053-.0116c-1.04727 0-1.88509-.6168-1.90836-1.3848s1.10545-11.18252 1.10545-11.18252h1.85019v1.51273c.00298.06879.01951.13631.04863.1987.02911.0624.07025.11843.12105.16491s.11026.08248.17499.10594c.06473.02347.13345.03394.20223.03081.06973.00473.1397-.00456.20578-.0273s.12694-.05848.17899-.10511c.05206-.04663.09425-.10321.1241-.16641.02984-.06319.04673-.13172.04968-.20154v-1.51273h5.7135v1.51273c.0193.13281.0858.25422.1873.34202s.2312.13612.3654.13612.2639-.04832.3654-.13612.168-.20921.1873-.34202v-1.51273h1.8036s1.1637 10.35632 1.1637 11.15932c0 .8029-.8727 1.4196-1.9084 1.4196z" fill="#363636" stroke="#363636" stroke-miterlimit="10" stroke-width=".3"/></svg>