<svg fill="none" height="16" viewBox="0 0 16 16" width="16" xmlns="http://www.w3.org/2000/svg"><g fill="#f24841" stroke="#f24841" stroke-miterlimit="10" stroke-width=".2"><path d="m12.6606 10.1038c-.1325-.14731-.2943-.26629-.4752-.34958-.181-.08329-.3774-.12911-.577-.13464-.2011.00663-.3989.0529-.5816.13606-.1827.08317-.3467.20155-.4823.34816l-.98209.98-.24551-.1268c-.08973-.0339-.17588-.0764-.25721-.1268-.97797-.6267-1.84658-1.40541-2.5721-2.30593-.37351-.40909-.68823-.86688-.93531-1.3605.25721-.23059.49104-.47271.72487-.7033l.25721-.26518c.15453-.13522.27823-.30122.36295-.48704s.12852-.38724.12852-.59098-.0438-.40516-.12852-.59098-.20842-.35181-.36295-.48703l-.80671-.85319-.28059-.29977c-.18706-.19601-.38581-.39201-.59626-.57648-.13237-.14281-.29296-.25739-.47191-.3367-.17894-.07931-.37245-.12168-.56862-.12449-.40259.00867-.78523.17454-1.06391.46119l-1.06391 1.07225c-.39453.38897-.63504.90422-.6781 1.45273-.031034.7875.10433 1.57276.3975 2.30592.54223 1.44838 1.3332 2.79392 2.33827 3.97768 1.34894 1.6131 3.03608 2.919 4.94544 3.8279.84505.4338 1.76504.7075 2.71244.807h.1987c.339.0077.6756-.0574.9864-.1908.3109-.1334.5887-.3319.8141-.5817.1637-.196.3507-.3689.5495-.5649l.4092-.4035c.291-.2841.4587-.6686.4676-1.0723-.0028-.2013-.0466-.4-.129-.5842-.0823-.1843-.2015-.3502-.3503-.4881zm.7833 3.6664c-.1908.1882-.4095.4042-.5962.6226-.1465.1617-.327.2898-.529.3755-.2019.0856-.4204.1267-.6402.1203h-.1987c-.845-.0792-1.66661-.318-2.42011-.7033-1.78224-.86-3.35694-2.0866-4.61809-3.5972-.96044-1.10871-1.71981-2.37243-2.24474-3.73562-.26295-.61554-.38279-1.28133-.35074-1.9485.02821-.35182.1814-.68253.43258-.9339l1.06392-1.06072c.12614-.12989.29731-.20811.47934-.21907.08523.005.16854.02698.2449.06464.07636.03765.14419.09018.19937.15443.19876.17294.37413.35741.56119.55342l.30397.29977.85347.85319c.07731.05565.14019.12851.18355.21265.04336.08415.06595.1772.06595.27159 0 .09438-.02259.18744-.06595.27158-.04336.08415-.10624.15701-.18355.21266l-.2689.26518c-.2689.26518-.51442.51883-.78332.76095-.09518.08784-.16161.20171-.19077.327-.02916.1253-.01973.25633.02709.37631.25564.59308.59407 1.14802 1.00546 1.64873.76958 1.00944 1.71108 1.87941 2.78254 2.57111l.37412.2191c.10988.0444.21552.0984.31567.1614.09538.0435.19889.0671.30397.0691.08997-.0008.17882-.0197.26121-.0554.08238-.0356.15658-.0874.21817-.1521l1.0639-1.0722c.1242-.1342.2956-.2166.4793-.2306.086.0071.1696.0311.2459.0707.0764.0397.1438.094.1984.1599l1.7186 1.7063c.0799.0591.1447.1357.1893.2238.0447.088.0679.1851.0679.2835 0 .0985-.0232.1956-.0679.2836-.1168.2305-.2908.3815-.4816.5696z"/><path d="m8.96615 4.51197c.82586.15076 1.58265.55416 2.16285 1.15296.5791.58487.9661 1.32813 1.1107 2.13298.0168.0977.0684.18628.1456.24972s.1748.09755.2753.09616h.0702c.1111-.02231.2089-.08676.2723-.17949s.0874-.20631.0667-.31628c-.1607-.98924-.6308-1.90426-1.3445-2.61722-.6991-.71474-1.6135-1.18785-2.60716-1.34896-.05452-.00998-.1105-.00924-.16473.00217-.05423.01142-.10563.03329-.15126.06436s-.08458.07073-.11463.11669c-.03004.04596-.05057.09733-.06042.15114-.01768.10962.00749.22177.07042.3138.06294.09202.15894.15706.26863.18197z"/><path d="m15.7471 7.50967c-.2664-1.63398-1.0429-3.14534-2.2213-4.3236-1.1649-1.14979-2.6651-1.91169-4.29077-2.17909-.05451-.009987-.11049-.009249-.16472.00217-.05423.01142-.10563.03329-.15126.06436s-.08459.07072-.11463.11669c-.03004.04596-.05057.09732-.06042.15113-.02109.10531.00001.21457.05887.30486s.1509.15459.25679.17939c1.46414.25779 2.81174.95562 3.85824 1.99792 1.0464 1.04229 1.7406 2.37811 1.9874 3.82452.0168.09771.0684.18629.1456.24973.0772.06343.1749.09754.2753.09616h.0702c.0556-.00836.1089-.02763.1569-.05667.0479-.02904.0894-.06726.1221-.11241.0327-.04514.0559-.09629.0682-.15042.0124-.05414.0135-.11015.0035-.16474z"/></g></svg>